<svg width="1600" height="900" viewBox="0 0 1600 900" fill="none" xmlns="http://www.w3.org/2000/svg">
  <rect width="1600" height="900" fill="#0F2D75"/>
  <rect y="560" width="1600" height="340" fill="#123B99"/>
  <circle cx="1320" cy="170" r="92" fill="#F6B31A" fill-opacity="0.95"/>
  <path d="M200 685C200 653.52 225.52 628 257 628H788C819.48 628 845 653.52 845 685V900H200V685Z" fill="#F5F7FF"/>
  <rect x="275" y="405" width="491" height="228" rx="18" fill="#E8EEFF"/>
  <rect x="315" y="445" width="160" height="150" rx="12" fill="#2E64E0"/>
  <rect x="520" y="445" width="190" height="28" rx="14" fill="#BCD0FF"/>
  <rect x="520" y="493" width="150" height="24" rx="12" fill="#C8D8FF"/>
  <rect x="520" y="535" width="126" height="24" rx="12" fill="#C8D8FF"/>
  <path d="M1022 316C1048 278 1090 254 1138 254C1218 254 1283 319 1283 399V702H905V494C905 418 944 351 1022 316Z" fill="#F8FBFF"/>
  <rect x="1004" y="393" width="178" height="38" rx="19" fill="#2E64E0"/>
  <rect x="1004" y="454" width="214" height="26" rx="13" fill="#C3D5FF"/>
  <rect x="1004" y="498" width="184" height="26" rx="13" fill="#C3D5FF"/>
  <rect x="1004" y="542" width="158" height="26" rx="13" fill="#C3D5FF"/>
  <circle cx="1156" cy="226" r="52" fill="#DDE7FF"/>
  <path d="M1137 221L1151 235L1177 207" stroke="#1E40AF" stroke-width="12" stroke-linecap="round" stroke-linejoin="round"/>
</svg>
